# xmcd
#
# Track frame offsets:
#	150
#	20859
#	44776
#	69463
#	89559
#	108826
#	128668
#	148286
#	167401
#	196249
#
# Disc length: 2887 seconds
#
# Revision: 0
# Processed by: cddbd v1.5.1PL0 Copyright (c) Steve Scherf et al.
# Submitted via: dBpowerAMP V4.0
#
DISCID=910b450a
DTITLE=Kenne Wayne - Who Is It?
DYEAR=2004
DGENRE=Blues
TTITLE0=Whatcha Gonna Do
TTITLE1=Superwoman
TTITLE2=Tonight's The Night
TTITLE3=Can I Be Your Man
TTITLE4=Who Is It
TTITLE5=I FRound Love
TTITLE6=Got A Love Bone
TTITLE7=Lovin' Kind
TTITLE8=Puttin' Our Business In The Street
TTITLE9=The Party Ain't Over Rmx
EXTD=
EXTT0=
EXTT1=
EXTT2=
EXTT3=
EXTT4=
EXTT5=
EXTT6=
EXTT7=
EXTT8=
EXTT9=
PLAYORDER=
